PathFileType	4	(X/Y/Z)	/Users/itak/Documents/Research/Walk-IL/dataset/trc/00081_00006.trc
DataRate	CameraRate	NumFrames	NumMarkers	Units	OrigDataRate	OrigDataStartFrame	OrigNumFrames
100.000000	100.000000	4	53	mm	100.000000	125	501
Frame#	Time	RPSI			LPSI			L3			STRN			T10			C7			CLAV			RBAK			LBAK			LSHO			LUPA			LAEL			LAOL			LWTS			LWPS			LFRA			LIFD			LHPS			LHTS			RSHO			RUPA			RAEL			RAOL			RWTS			RWPS			RFRA			RIFD			RHTS			RHPS			RBHD			LFHD			RFHD			LBHD			LHIP			RHIP			RASI			LASI			LKNE			LTHI			LANK			LTIP			LTOE			LMT1			LMT5			LHEE			RKNE			RTHI			RANK			RTIP			RTOE			RMT1			RMT5			RHEE			
		X1	Y1	Z1	X2	Y2	Z2	X3	Y3	Z3	X4	Y4	Z4	X5	Y5	Z5	X6	Y6	Z6	X7	Y7	Z7	X8	Y8	Z8	X9	Y9	Z9	X10	Y10	Z10	X11	Y11	Z11	X12	Y12	Z12	X13	Y13	Z13	X14	Y14	Z14	X15	Y15	Z15	X16	Y16	Z16	X17	Y17	Z17	X18	Y18	Z18	X19	Y19	Z19	X20	Y20	Z20	X21	Y21	Z21	X22	Y22	Z22	X23	Y23	Z23	X24	Y24	Z24	X25	Y25	Z25	X26	Y26	Z26	X27	Y27	Z27	X28	Y28	Z28	X29	Y29	Z29	X30	Y30	Z30	X31	Y31	Z31	X32	Y32	Z32	X33	Y33	Z33	X34	Y34	Z34	X35	Y35	Z35	X36	Y36	Z36	X37	Y37	Z37	X38	Y38	Z38	X39	Y39	Z39	X40	Y40	Z40	X41	Y41	Z41	X42	Y42	Z42	X43	Y43	Z43	X44	Y44	Z44	X45	Y45	Z45	X46	Y46	Z46	X47	Y47	Z47	X48	Y48	Z48	X49	Y49	Z49	X50	Y50	Z50	X51	Y51	Z51	X52	Y52	Z52	X53	Y53	Z53	

126	1.25	-1354.63818359375	1036.282836914062	475.81982421875	-1363.337646484375	1028.158813476562	300.8456115722656	-1354.525146484375	1085.2392578125	380.4463195800781	-1104.40771484375	1282.711669921875	386.7628173828125	-1372.77685546875	1220.312744140625	374.3002319335938	-1310.141479492188	1486.946411132812	374.5346069335938	-1131.940795898438	1397.528198242188	384.6262512207031	-1377.835571289062	1348.770385742188	446.1902465820312	-1326.853149414062	1449.479370117188	271.983154296875	-1220.045288085938	1453.200317382812	204.1733551025391	-1234.213256835938	1325.692749023438	126.3689270019531	-1216.165283203125	1109.53076171875	110.1807327270508	-1282.55810546875	1096.553955078125	193.4115600585938	-1125.81689453125	871.6820678710938	178.9682769775391	-1184.561889648438	858.915771484375	120.0780410766602	-1195.954467773438	1000.411560058594	105.4753952026367	-1116.873901367188	683.7660522460938	200.6730804443359	-1153.262084960938	779.02099609375	126.2133560180664	-1103.6474609375	787.9659423828125	176.1376647949219	-1255.520874023438	1448.340942382812	552.6038818359375	-1270.887817382812	1379.263793945312	614.3677368164062	-1306.717407226562	1114.593627929688	639.0408325195312	-1281.126098632812	1092.357788085938	544.9317016601562	-1159.67041015625	862.6158447265625	618.667724609375	-1235.602783203125	847.9827270507812	660.9076538085938	-1294.740234375	1034.751953125	647.4328002929688	-1151.554809570312	675.292724609375	603.5974731445312	-1134.806884765625	763.68017578125	621.6915893554688	-1196.87060546875	759.4548950195312	667.8978881835938	-1269.768188476562	1670.787841796875	320.0970764160156	-1096.857543945312	1691.988891601562	447.8279724121094	-1093.332641601562	1697.259887695312	322.144287109375	-1265.184326171875	1657.545532226562	457.5537719726562	-1260.627563476562	961.22607421875	211.5223693847656	-1287.787841796875	962.4942626953125	551.8888549804688	-1162.354736328125	977.6795043945312	530.2996826171875	-1146.634765625	969.6566772460938	261.2420043945312	-1194.621215820312	498.098876953125	271.6411437988281	-1224.20703125	638.1716918945312	232.4576263427734	-1347.066528320312	52.77117156982422	266.4746704101562	-1277.904663085938	261.6063842773438	255.3100738525391	-1140.72314453125	45.86093902587891	263.4119873046875	-1189.06884765625	44.02298736572266	319.2777709960938	-1246.703735351562	45.3020133972168	223.5597076416016	-1397.822998046875	51.59019470214844	342.3545532226562	-1206.973876953125	516.3768310546875	521.2744140625	-1204.563842773438	785.9093017578125	557.2117309570312	-1339.679565429688	46.35150527954102	506.4026489257812	-1235.301147460938	393.231689453125	524.6648559570312	-1119.483032226562	44.49510192871094	485.2651062011719	-1178.840209960938	49.41908645629883	441.0631408691406	-1216.981689453125	49.85918045043945	530.793212890625	-1381.1904296875	48.32503509521484	444.9952697753906	
127	1.26	-1354.054931640625	1036.239135742188	476.4513244628906	-1362.65283203125	1028.213256835938	301.47705078125	-1353.850708007812	1085.241333007812	381.0195007324219	-1103.59326171875	1282.609252929688	387.3526306152344	-1371.948120117188	1220.290771484375	374.7528991699219	-1309.196044921875	1486.92138671875	375.0251159667969	-1131.072265625	1397.429443359375	385.2096557617188	-1377.078369140625	1348.74658203125	446.6452026367188	-1325.883911132812	1449.454345703125	272.4792785644531	-1219.090209960938	1453.17529296875	204.6954040527344	-1233.364990234375	1325.693237304688	126.8500823974609	-1215.502685546875	1109.510620117188	110.6839065551758	-1281.759887695312	1096.581298828125	194.021484375	-1124.855590820312	871.795654296875	179.4530944824219	-1183.80029296875	858.8853149414062	120.863151550293	-1195.271850585938	1000.383544921875	106.0331954956055	-1115.810302734375	683.9603881835938	201.3607788085938	-1152.451904296875	779.0169067382812	127.021125793457	-1102.591552734375	788.0909423828125	176.6721038818359	-1254.748168945312	1448.29638671875	553.0967407226562	-1270.257690429688	1379.221435546875	614.857666015625	-1306.310546875	1114.602783203125	639.5004272460938	-1280.608154296875	1092.297485351562	545.4138793945312	-1159.499877929688	862.5496215820312	619.4420166015625	-1235.5478515625	848.0458374023438	661.55859375	-1294.473388671875	1034.7734375	647.9595947265625	-1151.518432617188	675.21484375	604.423828125	-1134.725219726562	763.622314453125	622.5369873046875	-1196.935302734375	759.3917236328125	668.6949462890625	-1268.839477539062	1670.740112304688	320.6610107421875	-1095.833862304688	1691.901611328125	448.2676391601562	-1092.336059570312	1697.126342773438	322.5858764648438	-1264.1337890625	1657.4755859375	458.0758972167969	-1259.9580078125	961.2093505859375	212.1784973144531	-1287.246459960938	962.411865234375	552.5740966796875	-1161.717651367188	977.4896240234375	530.9759521484375	-1146.002563476562	969.5038452148438	261.9150390625	-1194.333984375	498.01904296875	271.9191589355469	-1223.807250976562	638.1312866210938	232.8656921386719	-1347.080932617188	52.76617050170898	266.4649658203125	-1277.81396484375	261.6090698242188	255.4151611328125	-1140.747680664062	45.86997604370117	263.3966674804688	-1189.0810546875	44.01807022094727	319.2690734863281	-1246.708862304688	45.27952194213867	223.5498504638672	-1397.837158203125	51.58774566650391	342.3530883789062	-1206.103393554688	516.226318359375	521.5225830078125	-1203.97998046875	785.6704711914062	557.7176513671875	-1339.677490234375	46.44285202026367	506.3517456054688	-1234.57958984375	393.0158996582031	524.8728637695312	-1119.508056640625	44.61198806762695	485.1801147460938	-1178.828369140625	49.45480728149414	440.9608764648438	-1217.046020507812	49.98799133300781	530.7460327148438	-1381.171508789062	48.32592391967773	444.8931579589844	
128	1.27	-1353.435546875	1036.187622070312	477.1517028808594	-1361.927734375	1028.249145507812	302.1585693359375	-1353.143676757812	1085.233276367188	381.6406860351562	-1102.752197265625	1282.486083984375	388.0080871582031	-1371.082397460938	1220.259155273438	375.2469177246094	-1308.223022460938	1486.880493164062	375.5431213378906	-1130.16943359375	1397.329711914062	385.8455200195312	-1376.286987304688	1348.711547851562	447.1180725097656	-1324.88037109375	1449.41748046875	272.9991760253906	-1218.083618164062	1453.119995117188	205.2557830810547	-1232.44140625	1325.666259765625	127.3789749145508	-1214.7666015625	1109.475830078125	111.2157897949219	-1280.9365234375	1096.588989257812	194.6187438964844	-1123.814819335938	871.9119873046875	180.0489044189453	-1182.944702148438	858.8404541015625	121.7041625976562	-1194.497802734375	1000.332214355469	106.6360397338867	-1114.61181640625	684.1596069335938	202.2089080810547	-1151.49169921875	779.0127563476562	127.9306793212891	-1101.353393554688	788.2938842773438	177.3230743408203	-1253.952514648438	1448.250854492188	553.6327514648438	-1269.596313476562	1379.167602539062	615.3914794921875	-1305.890747070312	1114.607299804688	639.98095703125	-1280.068725585938	1092.24853515625	545.923583984375	-1159.269775390625	862.473388671875	620.232666015625	-1235.44384765625	848.0932006835938	662.2271118164062	-1294.179809570312	1034.7783203125	648.4981689453125	-1151.470947265625	675.1258544921875	605.2703857421875	-1134.618408203125	763.547607421875	623.402099609375	-1196.94970703125	759.33349609375	669.5200805664062	-1267.876708984375	1670.6806640625	321.2611694335938	-1094.778930664062	1691.811889648438	448.7401733398438	-1091.305541992188	1696.985107421875	323.0530090332031	-1263.047485351562	1657.39453125	458.6354370117188	-1259.269653320312	961.1870727539062	212.8709106445312	-1286.636840820312	962.3074951171875	553.293212890625	-1161.047119140625	977.2857666015625	531.7091064453125	-1145.322875976562	969.3555908203125	262.6291198730469	-1194.006469726562	497.9416809082031	272.2244262695312	-1223.385498046875	638.0990600585938	233.2877655029297	-1347.093994140625	52.76478576660156	266.4584045410156	-1277.719848632812	261.624267578125	255.5288391113281	-1140.771240234375	45.87826919555664	263.3804321289062	-1189.09228515625	44.01494216918945	319.2588195800781	-1246.713745117188	45.25837326049805	223.5390777587891	-1397.852661132812	51.58546447753906	342.3533020019531	-1205.26708984375	516.0897827148438	521.81787109375	-1203.355834960938	785.4475708007812	558.2608642578125	-1339.669921875	46.49137496948242	506.3197631835938	-1233.856201171875	392.8086853027344	525.0834350585938	-1119.535278320312	44.73931121826172	485.0896606445312	-1178.820434570312	49.49692535400391	440.8645935058594	-1217.114990234375	50.11015319824219	530.7005615234375	-1381.171020507812	48.30491256713867	444.8250732421875	
129	1.28	-1352.769897460938	1036.12451171875	477.9120483398438	-1361.158935546875	1028.263061523438	302.8849792480469	-1352.40478515625	1085.213623046875	382.3081970214844	-1101.880737304688	1282.34033203125	388.731689453125	-1370.182250976562	1220.219360351562	375.7880554199219	-1307.222778320312	1486.824340820312	376.0933532714844	-1129.229858398438	1397.226196289062	386.5342712402344	-1375.4501953125	1348.668090820312	447.611083984375	-1323.840576171875	1449.3662109375	273.5462646484375	-1217.019897460938	1453.032348632812	205.8576507568359	-1231.441772460938	1325.610717773438	127.9532165527344	-1213.955322265625	1109.4228515625	111.7716445922852	-1280.084350585938	1096.57373046875	195.1999664306641	-1122.696166992188	872.03076171875	180.7601470947266	-1181.982543945312	858.7789306640625	122.6020278930664	-1193.632080078125	1000.253540039062	107.2803649902344	-1113.284057617188	684.357421875	203.2193908691406	-1150.384887695312	779.0043334960938	128.9367370605469	-1099.907592773438	788.5772705078125	178.0828094482422	-1253.1318359375	1448.200805664062	554.2161865234375	-1268.898559570312	1379.101318359375	615.968994140625	-1305.459106445312	1114.609619140625	640.4826049804688	-1279.506225585938	1092.22119140625	546.4713745117188	-1158.993774414062	862.385498046875	621.0418090820312	-1235.287353515625	848.11083984375	662.9091186523438	-1293.854370117188	1034.764282226562	649.0475463867188	-1151.41455078125	675.0247192382812	606.1484375	-1134.485229492188	763.4507446289062	624.29443359375	-1196.903686523438	759.2818603515625	670.3554077148438	-1266.873657226562	1670.605102539062	321.8955078125	-1093.689086914062	1691.71728515625	449.2454223632812	-1090.244995117188	1696.832153320312	323.5495300292969	-1261.927001953125	1657.306640625	459.2400512695312	-1258.54541015625	961.1572875976562	213.6031341552734	-1285.965087890625	962.1806030273438	554.0431518554688	-1160.3310546875	977.080322265625	532.5027465820312	-1144.58349609375	969.2149047851562	263.3897094726562	-1193.628173828125	497.8661193847656	272.5613708496094	-1222.920288085938	638.07080078125	233.7316131591797	-1347.10595703125	52.76522827148438	266.453125	-1277.6201171875	261.6522521972656	255.6512298583984	-1140.794677734375	45.88580322265625	263.3621215820312	-1189.101928710938	44.01391220092773	319.2472229003906	-1246.719360351562	45.23804473876953	223.5253601074219	-1397.867553710938	51.58129501342773	342.3553466796875	-1204.491577148438	515.9678955078125	522.1657104492188	-1202.70263671875	785.2416381835938	558.8385009765625	-1339.657592773438	46.4852294921875	506.3148193359375	-1233.143920898438	392.6028747558594	525.3117065429688	-1119.579345703125	44.86878967285156	484.9990234375	-1178.818115234375	49.54630279541016	440.7815551757812	-1217.18505859375	50.22074127197266	530.659423828125	-1381.192138671875	48.25634765625	444.8017883300781	
